<?xml version="1.0" encoding="utf-8"?>
<!-- Generator: Adobe Illustrator 25.4.1, SVG Export Plug-In . SVG Version: 6.00 Build 0)  -->
<svg version="1.1" id="Layer_1" xmlns="http://www.w3.org/2000/svg" xmlns:xlink="http://www.w3.org/1999/xlink" x="0px" y="0px"
	 viewBox="0 0 512 512" style="enable-background:new 0 0 512 512;" xml:space="preserve">
<style type="text/css">
	.st0{clip-path:url(#SVGID_00000057140011128217715870000004225962809983028652_);}
	.st1{fill:#FFFFFF;}
</style>
<g>
	<g>
		<g>
			<defs>
				<path id="SVGID_4_" d="M0,256c0,141.39,114.61,256,256,256s256-114.61,256-256S397.39,0,256,0S0,114.61,0,256"/>
			</defs>
			<use xlink:href="#SVGID_4_"  style="overflow:visible;"/>
			<clipPath id="SVGID_00000098905352468979054320000013107511407560498090_">
				<use xlink:href="#SVGID_4_"  style="overflow:visible;"/>
			</clipPath>
			<rect style="clip-path:url(#SVGID_00000098905352468979054320000013107511407560498090_);" width="512" height="512"/>
		</g>
	</g>
</g>
<path class="st1" d="M378.24,95.82H133.76c-3.02,0-5.47,2.45-5.47,5.47v309.39c-0.01,3.03,2.43,5.49,5.46,5.5c0,0,0.01,0,0.01,0
	h244.47c3.02,0,5.47-2.45,5.47-5.47V101.32c0.01-3.03-2.43-5.49-5.46-5.5C378.25,95.82,378.24,95.82,378.24,95.82z M146.42,123.25
	c0-2.42,1.96-4.39,4.39-4.39h106.7c2.42,0,4.39,1.96,4.39,4.39v106.71c0,2.42-1.96,4.39-4.39,4.39h-106.7
	c-2.42,0-4.39-1.96-4.39-4.39V123.25z M361.19,393.15H150.81c-2.42,0-4.39-1.96-4.39-4.39c0-2.42,1.96-4.39,4.39-4.39h210.39
	c2.42,0,4.39,1.96,4.39,4.39C365.58,391.19,363.62,393.15,361.19,393.15z M361.19,359.97H150.81c-2.42,0-4.39-1.96-4.39-4.39
	c0-2.42,1.96-4.39,4.39-4.39h210.39c2.42,0,4.39,1.96,4.39,4.39C365.58,358,363.62,359.97,361.19,359.97z M361.19,326.77H150.81
	c-2.42,0-4.39-1.96-4.39-4.39c0-2.42,1.96-4.39,4.39-4.39h210.39c2.42,0,4.39,1.96,4.39,4.39
	C365.58,324.81,363.62,326.77,361.19,326.77z M361.19,293.59H150.81c-2.42,0-4.39-1.96-4.39-4.39s1.96-4.39,4.39-4.39h210.39
	c2.42,0,4.39,1.96,4.39,4.39S363.62,293.59,361.19,293.59z M361.19,260.4H150.81c-2.42,0-4.39-1.96-4.39-4.39
	c0-2.42,1.96-4.39,4.39-4.39h210.39c2.42,0,4.39,1.96,4.39,4.39C365.58,258.44,363.62,260.4,361.19,260.4z M361.19,227.22h-75.04
	c-2.42,0-4.39-1.96-4.39-4.39s1.96-4.39,4.39-4.39h75.04c2.42,0,4.39,1.96,4.39,4.39S363.62,227.22,361.19,227.22z M361.19,194.03
	h-75.04c-2.42,0-4.39-1.96-4.39-4.39s1.96-4.39,4.39-4.39h75.04c2.42,0,4.39,1.96,4.39,4.39S363.62,194.03,361.19,194.03z
	 M361.19,160.84h-75.04c-2.42,0-4.39-1.96-4.39-4.39s1.96-4.39,4.39-4.39h75.04c2.42,0,4.39,1.96,4.39,4.39
	S363.62,160.84,361.19,160.84z M361.19,127.66h-75.04c-2.42,0-4.39-1.96-4.39-4.39s1.96-4.39,4.39-4.39h75.04
	c2.42,0,4.39,1.96,4.39,4.39S363.62,127.66,361.19,127.66z"/>
<path class="st1" d="M230.73,217.5v8.05h-53.15v-8.05c0-14.68,11.9-26.57,26.57-26.57S230.73,202.83,230.73,217.5L230.73,217.5z"/>
<path class="st1" d="M155.19,127.64v97.93h13.61v-8.05c0-19.52,15.83-35.35,35.35-35.35s35.35,15.83,35.35,35.35v8.05h13.61v-97.93
	H155.19z M204.16,177.9c-11.85,0-21.46-9.61-21.46-21.46c0-11.85,9.61-21.46,21.46-21.46c11.85,0,21.46,9.61,21.46,21.46l0,0
	C225.6,168.29,216,177.89,204.16,177.9z"/>
<path class="st1" d="M216.84,156.44c0,7-5.67,12.69-12.68,12.69c-7,0-12.69-5.67-12.69-12.68c0-7,5.67-12.69,12.68-12.69
	c0,0,0,0,0.01,0C211.15,143.77,216.83,149.44,216.84,156.44z"/>
</svg>
